<mxfile host="app.diagrams.net" modified="2023-05-24T14:26:33.214Z" agent="Mozilla/5.0 (Windows NT 10.0; Win64; x64) AppleWebKit/537.36 (KHTML, like Gecko) Chrome/113.0.0.0 Safari/537.36" etag="rpATHWSokvouClW953SL" version="21.3.3" type="github">
  <diagram id="R2lEEEUBdFMjLlhIrx00" name="Page-1">
    <mxGraphModel dx="794" dy="462" grid="1" gridSize="10" guides="1" tooltips="1" connect="1" arrows="1" fold="1" page="1" pageScale="1" pageWidth="850" pageHeight="1100" math="0" shadow="0" extFonts="Permanent Marker^https://fonts.googleapis.com/css?family=Permanent+Marker">
      <root>
        <mxCell id="0" />
        <mxCell id="1" parent="0" />
        <mxCell id="ScSTA9Bivini5YolvW4M-5" value="Empresa&lt;br&gt;" style="whiteSpace=wrap;html=1;align=center;" parent="1" vertex="1">
          <mxGeometry x="290" y="200" width="100" height="40" as="geometry" />
        </mxCell>
        <mxCell id="ScSTA9Bivini5YolvW4M-9" value="Attribute" style="ellipse;whiteSpace=wrap;html=1;align=center;" parent="1" vertex="1">
          <mxGeometry x="310" y="50" width="100" height="40" as="geometry" />
        </mxCell>
        <mxCell id="ScSTA9Bivini5YolvW4M-10" value="Attribute" style="ellipse;whiteSpace=wrap;html=1;align=center;" parent="1" vertex="1">
          <mxGeometry x="120" y="70" width="100" height="40" as="geometry" />
        </mxCell>
        <mxCell id="ScSTA9Bivini5YolvW4M-11" value="Attribute" style="ellipse;whiteSpace=wrap;html=1;align=center;" parent="1" vertex="1">
          <mxGeometry x="120" y="130" width="100" height="40" as="geometry" />
        </mxCell>
        <mxCell id="ScSTA9Bivini5YolvW4M-15" value="Attribute" style="ellipse;whiteSpace=wrap;html=1;align=center;fontStyle=4;strokeWidth=3;" parent="1" vertex="1">
          <mxGeometry x="100" y="200" width="60" height="20" as="geometry" />
        </mxCell>
        <mxCell id="ScSTA9Bivini5YolvW4M-27" value="AdmissÃ£o" style="whiteSpace=wrap;html=1;align=center;" parent="1" vertex="1">
          <mxGeometry x="500" y="220" width="100" height="40" as="geometry" />
        </mxCell>
        <mxCell id="ScSTA9Bivini5YolvW4M-28" value="Eventos" style="whiteSpace=wrap;html=1;align=center;" parent="1" vertex="1">
          <mxGeometry x="530" y="340" width="100" height="40" as="geometry" />
        </mxCell>
        <mxCell id="ScSTA9Bivini5YolvW4M-29" value="EventosFolha" style="whiteSpace=wrap;html=1;align=center;" parent="1" vertex="1">
          <mxGeometry x="420" y="390" width="100" height="40" as="geometry" />
        </mxCell>
        <mxCell id="ScSTA9Bivini5YolvW4M-30" value="Trabalhador&lt;br&gt;" style="whiteSpace=wrap;html=1;align=center;" parent="1" vertex="1">
          <mxGeometry x="530" y="120" width="100" height="40" as="geometry" />
        </mxCell>
        <mxCell id="ScSTA9Bivini5YolvW4M-31" value="FolhaPagamento" style="whiteSpace=wrap;html=1;align=center;" parent="1" vertex="1">
          <mxGeometry x="640" y="210" width="100" height="40" as="geometry" />
        </mxCell>
        <mxCell id="ScSTA9Bivini5YolvW4M-32" value="Contribuicao&lt;br&gt;Previdenciaria" style="whiteSpace=wrap;html=1;align=center;" parent="1" vertex="1">
          <mxGeometry x="140" y="330" width="100" height="40" as="geometry" />
        </mxCell>
      </root>
    </mxGraphModel>
  </diagram>
</mxfile>
